{"accessors":[{"bufferView":2,"componentType":5126,"count":4845,"max":[1.0769603252410889,1.046312928199768,3.0777974128723145],"min":[-1.09367835521698,-1.1248716115951538,0.4439048171043396],"type":"VEC3"},{"bufferView":2,"byteOffset":58140,"componentType":5126,"count":4845,"max":[0.9999994039535522,0.966151237487793,0.9990952610969543],"min":[-0.9999994039535522,-0.9970841407775879,-0.9998934864997864],"type":"VEC3"},{"bufferView":1,"componentType":5126,"count":4845,"max":[0.9363555312156677,0.9557557702064514],"min":[0.0033010272309184074,0.003202250460162759],"type":"VEC2"},{"bufferView":0,"componentType":5125,"count":5655,"max":[4844],"min":[0],"type":"SCALAR"},{"bufferView":2,"byteOffset":116280,"componentType":5126,"count":175,"max":[0.06640836596488953,0.06315810978412628,2.993774175643921],"min":[-0.13034173846244812,-0.07955976575613022,0],"type":"VEC3"},{"bufferView":2,"byteOffset":118380,"componentType":5126,"count":175,"max":[1,0.9536678194999695,0.705551028251648],"min":[-1,-0.9539609551429749,-0.0623815581202507],"type":"VEC3"},{"bufferView":3,"componentType":5126,"count":175,"max":[0.9635711908340454,1,0.8007822036743164,1],"min":[-0.972417414188385,-1,-0.7082381844520569,1],"type":"VEC4"},{"bufferView":1,"byteOffset":38760,"componentType":5126,"count":175,"max":[0.15434563159942627,0.9974369406700134],"min":[0.0025567731354385614,0.002557187806814909],"type":"VEC2"},{"bufferView":0,"byteOffset":22620,"componentType":5125,"count":864,"max":[174],"min":[0],"type":"SCALAR"}],"asset":{"extras":{"author":"AlexKool (https://sketchfab.com/sheh5262)","license":"CC-BY-4.0 (http://creativecommons.org/licenses/by/4.0/)","source":"https://sketchfab.com/3d-models/pine-tree-e52769d653cd4e52a4acff3041961e65","title":"Pine tree"},"generator":"Sketchfab-9.52.0","version":"2.0"},"bufferViews":[{"buffer":0,"byteLength":26076,"byteOffset":0,"name":"floatBufferViews","target":34963},{"buffer":0,"byteLength":40160,"byteOffset":26076,"byteStride":8,"name":"floatBufferViews","target":34962},{"buffer":0,"byteLength":120480,"byteOffset":66236,"byteStride":12,"name":"floatBufferViews","target":34962},{"buffer":0,"byteLength":2800,"byteOffset":186716,"byteStride":16,"name":"floatBufferViews","target":34962}],"buffers":[{"byteLength":189516,"uri":"data:application/octet-stream;base64,"}],"images":[{"uri":"data:application/octet-stream;base64,"},{"uri":"data:application/octet-stream;base64,"},{"uri":"data:application/octet-stream;base64,"}],"materials":[{"alphaMode":"BLEND","doubleSided":true,"name":"Leavs","pbrMetallicRoughness":{"baseColorFactor":[1,1,1,1],"baseColorTexture":{"index":0,"texCoord":0},"metallicFactor":0,"roughnessFactor":0}},{"doubleSided":true,"name":"Trank","normalTexture":{"index":2,"scale":1,"texCoord":0},"pbrMetallicRoughness":{"baseColorFactor":[1,1,1,1],"baseColorTexture":{"index":1,"texCoord":0},"metallicFactor":0,"roughnessFactor":0.8954955037119458}}],"meshes":[{"name":"Leaves/001_Leavs_0","primitives":[{"attributes":{"NORMAL":1,"POSITION":0,"TEXCOORD_0":2},"indices":3,"material":0,"mode":4}]},{"name":"Trank.001_Trank_0","primitives":[{"attributes":{"NORMAL":5,"POSITION":4,"TANGENT":6,"TEXCOORD_0":7},"indices":8,"material":1,"mode":4}]}],"nodes":[{"children":[1],"name":"RootNode (gltf orientation matrix)","rotation":[-0.7071067811865475,0,0,0.7071067811865476]},{"children":[2],"name":"RootNode (model correction matrix)"},{"children":[3],"matrix":[1,0,0,0,0,0,1,0,0,-1,0,0,0,0,0,1],"name":"4ae49a7eb2b34ec88b7dd664e89d6dd8.fbx"},{"children":[4,6],"name":"RootNode"},{"children":[5],"matrix":[100,0,0,0,0,-0.00001629206793918314,-99.99999999999868,0,0,99.99999999999868,-0.00001629206793918314,0,0,0,0,1],"name":"Leaves/001"},{"mesh":0,"name":"Leaves/001_Leavs_0"},{"children":[7],"matrix":[100,0,0,0,0,-0.00001629206793918314,-99.99999999999868,0,0,99.99999999999868,-0.00001629206793918314,0,0,0,0,1],"name":"Trank.001"},{"mesh":1,"name":"Trank.001_Trank_0"}],"samplers":[{"magFilter":9729,"minFilter":9987,"wrapS":10497,"wrapT":10497}],"scene":0,"scenes":[{"name":"OSG_Scene","nodes":[0]}],"textures":[{"sampler":0,"source":0},{"sampler":0,"source":1},{"sampler":0,"source":2}]}